<?xml version="1.0" encoding="UTF-8"?>
<!DOCTYPE svg PUBLIC "-//W3C//DTD SVG 1.1//EN" "http://www.w3.org/Graphics/SVG/1.1/DTD/svg11.dtd">
<!-- Creator: CorelDRAW 2019 (64-Bit) -->
<svg xmlns="http://www.w3.org/2000/svg" xml:space="preserve" width="1994px" height="187px" version="1.1" style="shape-rendering:geometricPrecision; text-rendering:geometricPrecision; image-rendering:optimizeQuality; fill-rule:evenodd; clip-rule:evenodd"
viewBox="0 0 126.59 11.9"
 xmlns:xlink="http://www.w3.org/1999/xlink"
 xmlns:xodm="http://www.corel.com/coreldraw/odm/2003">
 <defs>
  <style type="text/css">
   <![CDATA[
    .fil0 {fill:#4D5159}
   ]]>
  </style>
 </defs>
 <g id="Слой_x0020_3">
  <metadata id="CorelCorpID_0Corel-Layer"/>
  <path class="fil0" d="M0 11.9l126.59 0 0 -11.9 -126.59 0 0 11.9zm110.83 -11.45l15.32 0 0 11.01 -15.32 0 0 -11.01zm-110.38 0l15.32 0 0 11.01 -15.32 0 0 -11.01zm94.61 0l15.32 0 0 11.01 -15.32 0 0 -11.01zm-15.77 0l15.32 0 0 11.01 -15.32 0 0 -11.01zm-15.77 0l15.32 0 0 11.01 -15.32 0 0 -11.01zm-15.77 0l15.32 0 0 11.01 -15.32 0 0 -11.01zm-15.77 0l15.32 0 0 11.01 -15.32 0 0 -11.01zm-15.76 0l15.32 0 0 11.01 -15.32 0 0 -11.01z"/>
 </g>
</svg>
