<?xml version="1.0" encoding="UTF-8"?>
<!DOCTYPE svg PUBLIC "-//W3C//DTD SVG 1.0//EN" "http://www.w3.org/TR/2001/REC-SVG-20010904/DTD/svg10.dtd">
<!-- Creator: CorelDRAW 2019 (64-Bit) -->
<svg xmlns="http://www.w3.org/2000/svg" xml:space="preserve" width="1294px" height="167px" version="1.0" shape-rendering="geometricPrecision" text-rendering="geometricPrecision" image-rendering="optimizeQuality" fill-rule="evenodd" clip-rule="evenodd"
viewBox="0 0 34.62 4.47"
 xmlns:xlink="http://www.w3.org/1999/xlink"
 xmlns:xodm="http://www.corel.com/coreldraw/odm/2003">
 <g id="Слой_x0020_3">
  <metadata id="CorelCorpID_0Corel-Layer"/>
  <path fill="#AE4A84" fill-rule="nonzero" d="M26.93 4.45c0.46,0 0.67,-0.19 0.79,-0.66l0.24 -0.96 0.77 0 -0.28 1.62 0.66 0 0.38 -2.15 -2.07 0 -0.33 1.38c-0.05,0.19 -0.12,0.25 -0.31,0.25l-0.07 0 -0.1 0.52 0.32 0zm3.58 -2.15c-0.5,0 -0.71,0.17 -0.79,0.67l-0.13 0.74c-0.09,0.49 0.12,0.74 0.6,0.74l1.04 0c0.42,0 0.59,-0.15 0.67,-0.58l0.04 -0.21 -0.63 0 -0.01 0.06c-0.04,0.17 -0.09,0.22 -0.26,0.22l-0.55 0c-0.21,0 -0.27,-0.07 -0.23,-0.29l0.03 -0.17 1.68 0 0.08 -0.45c0.08,-0.5 -0.11,-0.73 -0.6,-0.73l-0.94 0zm-0.15 0.74c0.04,-0.21 0.11,-0.27 0.32,-0.27l0.5 0c0.21,0 0.27,0.06 0.23,0.28l0 0.04 -1.06 0 0.01 -0.05zm2.71 -0.21l-0.29 1.62 0.66 0 0.29 -1.62 0.79 0 0.1 -0.53 -2.25 0 -0.1 0.53 0.8 0z"/>
  <path fill="#AE4A84" fill-rule="nonzero" d="M0.37 2.35l-0.37 2.11 0.25 0 0.33 -1.89 1.31 0 0.04 -0.22 -1.56 0zm3.52 2.11l-0.65 -2.11 -0.28 0 -1.4 2.11 0.29 0 0.35 -0.55 1.26 0 0.16 0.55 0.27 0zm-0.82 -1.89l0.33 1.14 -1.07 0 0.74 -1.14zm1.25 1.89l0.14 -0.79 1.16 0c0.17,0 0.29,-0.03 0.37,-0.1 0.08,-0.06 0.13,-0.18 0.16,-0.35l0.07 -0.37c0.06,-0.34 -0.08,-0.5 -0.42,-0.5l-1.36 0 -0.38 2.11 0.26 0zm0.33 -1.91l1.04 0c0.24,0 0.31,0.09 0.27,0.33l-0.06 0.3c-0.02,0.12 -0.05,0.19 -0.09,0.23 -0.05,0.04 -0.13,0.06 -0.24,0.06l-1.08 0 0.16 -0.92zm3.68 1.91l-0.66 -2.11 -0.27 0 -1.4 2.11 0.29 0 0.35 -0.55 1.26 0 0.16 0.55 0.27 0zm-0.82 -1.89l0.33 1.14 -1.07 0 0.74 -1.14zm2.85 0.67l-1.43 0 0.16 -0.89 -0.25 0 -0.38 2.11 0.26 0 0.18 -1 1.42 0 -0.18 1 0.26 0 0.37 -2.11 -0.25 0 -0.16 0.89zm0.66 -0.89l-0.05 0.22 0.83 0 -0.33 1.89 0.25 0 0.33 -1.89 0.83 0 0.04 -0.22 -1.9 0zm2.06 1.69l0.3 -1.69 -0.25 0 -0.37 2.11 0.2 0 1.84 -1.72 -0.3 1.72 0.25 0 0.37 -2.11 -0.21 0 -1.83 1.69zm2.84 -1.69c-0.17,0 -0.29,0.03 -0.37,0.09 -0.08,0.07 -0.13,0.19 -0.16,0.36l-0.05 0.29c-0.06,0.34 0.08,0.51 0.42,0.51l0.03 0 -0.79 0.86 0.31 0 0.77 -0.85 0.78 0 -0.15 0.85 0.26 0 0.37 -2.11 -1.42 0zm-0.06 1.06c-0.24,0 -0.31,-0.09 -0.27,-0.32l0.05 -0.26c0.02,-0.11 0.05,-0.19 0.1,-0.22 0.04,-0.04 0.12,-0.06 0.23,-0.06l1.08 0 -0.15 0.86 -1.04 0z"/>
  <path fill="#AE4A84" fill-rule="nonzero" d="M22.98 0c-0.67,0 -0.95,0.24 -1.06,0.9l-0.07 0.38c-0.07,0.43 0.03,0.72 0.33,0.85 -0.4,0.08 -0.6,0.31 -0.68,0.81l-0.09 0.51c-0.11,0.67 0.17,1.02 0.83,1.02l2.2 0c0.66,0 0.95,-0.23 1.06,-0.9l0.09 -0.51c0.07,-0.45 -0.05,-0.74 -0.36,-0.87 0.33,-0.09 0.51,-0.32 0.58,-0.78l0.07 -0.39c0.11,-0.66 -0.17,-1.02 -0.83,-1.02l-2.07 0zm-0.04 1.15c0.05,-0.26 0.13,-0.34 0.39,-0.34l1.16 0c0.27,0 0.35,0.11 0.31,0.37l-0.05 0.29c-0.05,0.26 -0.14,0.34 -0.41,0.34l-1.15 0c-0.27,0 -0.36,-0.11 -0.31,-0.37l0.06 -0.29zm1.54 2.17c-0.05,0.27 -0.14,0.34 -0.4,0.34l-1.28 0c-0.27,0 -0.36,-0.11 -0.31,-0.37l0.08 -0.41c0.05,-0.28 0.14,-0.35 0.4,-0.35l1.28 0c0.26,0 0.35,0.11 0.31,0.37l-0.08 0.42z"/>
  <path fill="#AE4A84" fill-rule="nonzero" d="M20.99 0l-0.61 0 -1.93 0.36 -0.17 0.92 1.46 -0.27c-0.21,1.18 -0.4,2.29 -0.61,3.46l1.06 0c0.27,-1.49 0.53,-2.98 0.8,-4.47z"/>
 </g>
</svg>
