<?xml version="1.0" encoding="UTF-8"?>
<!DOCTYPE svg PUBLIC "-//W3C//DTD SVG 1.0//EN" "http://www.w3.org/TR/2001/REC-SVG-20010904/DTD/svg10.dtd">
<!-- Creator: CorelDRAW 2019 (64-Bit) -->
<svg xmlns="http://www.w3.org/2000/svg" xml:space="preserve" width="59px" height="59px" version="1.0" shape-rendering="geometricPrecision" text-rendering="geometricPrecision" image-rendering="optimizeQuality" fill-rule="evenodd" clip-rule="evenodd"
viewBox="0 0 5.01 5.01"
 xmlns:xlink="http://www.w3.org/1999/xlink"
 xmlns:xodm="http://www.corel.com/coreldraw/odm/2003">
 <g id="Слой_x0020_1">
  <metadata id="CorelCorpID_0Corel-Layer"/>
  <g id="_1892124171328">
   <path fill="#444C5F" fill-rule="nonzero" d="M0.38 0l4.25 0c0.11,0 0.2,0.04 0.27,0.11 0.07,0.07 0.11,0.17 0.11,0.27l0 4.25c0,0.1 -0.04,0.2 -0.11,0.27 -0.07,0.07 -0.17,0.11 -0.27,0.11l-4.25 0c-0.1,0 -0.2,-0.04 -0.27,-0.11 -0.07,-0.07 -0.11,-0.17 -0.11,-0.27l0 -4.25c0,-0.1 0.04,-0.2 0.11,-0.27 0.07,-0.07 0.17,-0.11 0.27,-0.11zm4.25 0.35l-4.25 0c0,0 -0.01,0 -0.02,0.01 -0.01,0.01 -0.01,0.02 -0.01,0.02l0 4.25c0,0.01 0,0.02 0.01,0.02 0.01,0.01 0.02,0.01 0.02,0.01l4.25 0c0.01,0 0.02,0 0.02,-0.01 0.01,0 0.01,-0.01 0.01,-0.02l0 -4.25c0,0 0,-0.01 -0.01,-0.02 0,-0.01 -0.01,-0.01 -0.02,-0.01z"/>
   <path fill="#444C5F" fill-rule="nonzero" d="M0.73 1.69l0 0.39 0.61 0 0 1.38 0.43 0 0 -1.38 0.61 0 0 -0.39 -1.65 0zm3.07 1.77c0.33,0 0.49,-0.16 0.49,-0.49l0 -0.23 -0.42 0 0 0.15c0,0.15 -0.05,0.2 -0.21,0.2l-0.46 0c-0.15,0 -0.2,-0.05 -0.2,-0.2l0 -0.63c0,-0.15 0.05,-0.2 0.2,-0.2l0.46 0c0.16,0 0.21,0.05 0.21,0.2l0 0.13 0.42 0 0 -0.21c0,-0.33 -0.16,-0.49 -0.49,-0.49l-0.75 0c-0.33,0 -0.48,0.16 -0.48,0.49l0 0.79c0,0.33 0.15,0.49 0.48,0.49l0.75 0z"/>
  </g>
 </g>
</svg>
