<?xml version="1.0" encoding="UTF-8"?>
<!DOCTYPE svg PUBLIC "-//W3C//DTD SVG 1.0//EN" "http://www.w3.org/TR/2001/REC-SVG-20010904/DTD/svg10.dtd">
<!-- Creator: CorelDRAW 2019 (64-Bit) -->
<svg xmlns="http://www.w3.org/2000/svg" xml:space="preserve" width="59px" height="59px" version="1.0" shape-rendering="geometricPrecision" text-rendering="geometricPrecision" image-rendering="optimizeQuality" fill-rule="evenodd" clip-rule="evenodd"
viewBox="0 0 6.61 6.61"
 xmlns:xlink="http://www.w3.org/1999/xlink"
 xmlns:xodm="http://www.corel.com/coreldraw/odm/2003">
 <g id="Слой_x0020_1">
  <metadata id="CorelCorpID_0Corel-Layer"/>
  <g id="_1892184720144">
   <path fill="#444C5F" fill-rule="nonzero" d="M1.53 4.56l0 -0.73 1.04 0c0.41,0 0.58,-0.17 0.58,-0.58l0 -0.44c0,-0.41 -0.17,-0.58 -0.58,-0.58l-1.61 0 0 2.33 0.57 0zm0 -1.88l0.82 0c0.17,0 0.23,0.05 0.23,0.23l0 0.26c0,0.17 -0.06,0.23 -0.23,0.23l-0.82 0 0 -0.72zm1.83 1.38c0,0.34 0.16,0.5 0.5,0.5l1.29 0c0.34,0 0.5,-0.16 0.5,-0.5l0 -0.38c0,-0.34 -0.15,-0.47 -0.5,-0.5l-1 -0.09c-0.14,-0.01 -0.18,-0.05 -0.18,-0.19l0 -0.04c0,-0.14 0.05,-0.19 0.18,-0.19l0.72 0c0.13,0 0.18,0.05 0.18,0.19l0 0.05 0.55 0 0 -0.18c0,-0.34 -0.15,-0.5 -0.49,-0.5l-1.22 0c-0.34,0 -0.49,0.16 -0.49,0.5l0 0.32c0,0.33 0.15,0.46 0.49,0.5l1 0.09c0.15,0.01 0.19,0.05 0.19,0.19l0 0.1c0,0.13 -0.05,0.18 -0.19,0.18l-0.79 0c-0.14,0 -0.19,-0.05 -0.19,-0.18l0 -0.09 -0.55 0 0 0.22z"/>
   <path fill="#444C5F" fill-rule="nonzero" d="M0.51 0l5.59 0c0.14,0 0.27,0.06 0.36,0.15 0.09,0.09 0.15,0.22 0.15,0.36l0 5.59c0,0.14 -0.06,0.27 -0.15,0.36 -0.09,0.09 -0.22,0.15 -0.36,0.15l-5.59 0c-0.14,0 -0.27,-0.06 -0.36,-0.15 -0.09,-0.09 -0.15,-0.22 -0.15,-0.36l0 -5.59c0,-0.14 0.06,-0.27 0.15,-0.36 0.09,-0.09 0.22,-0.15 0.36,-0.15zm5.59 0.46l-5.59 0c-0.01,0 -0.03,0.01 -0.03,0.02 -0.01,0 -0.02,0.02 -0.02,0.03l0 5.59c0,0.01 0.01,0.03 0.02,0.03 0,0.01 0.01,0.02 0.03,0.02l5.59 0c0.01,0 0.03,-0.01 0.03,-0.02 0.01,0 0.02,-0.02 0.02,-0.03l0 -5.59c0,-0.02 -0.01,-0.03 -0.02,-0.03 0,-0.01 -0.02,-0.02 -0.03,-0.02z"/>
  </g>
 </g>
</svg>
