<?xml version="1.0" encoding="UTF-8"?>
<!DOCTYPE svg PUBLIC "-//W3C//DTD SVG 1.0//EN" "http://www.w3.org/TR/2001/REC-SVG-20010904/DTD/svg10.dtd">
<!-- Creator: CorelDRAW 2019 (64-Bit) -->
<svg xmlns="http://www.w3.org/2000/svg" xml:space="preserve" width="59px" height="59px" version="1.0" shape-rendering="geometricPrecision" text-rendering="geometricPrecision" image-rendering="optimizeQuality" fill-rule="evenodd" clip-rule="evenodd"
viewBox="0 0 4.06 4.06"
 xmlns:xlink="http://www.w3.org/1999/xlink"
 xmlns:xodm="http://www.corel.com/coreldraw/odm/2003">
 <g id="Слой_x0020_1">
  <metadata id="CorelCorpID_0Corel-Layer"/>
  <g id="_1892124225792">
   <path fill="#444C5F" fill-rule="nonzero" d="M0.31 0l3.44 0c0.09,0 0.17,0.04 0.22,0.09 0.06,0.06 0.09,0.14 0.09,0.22l0 3.44c0,0.09 -0.03,0.17 -0.09,0.22 -0.05,0.06 -0.13,0.09 -0.22,0.09l-3.44 0c-0.08,0 -0.16,-0.03 -0.22,-0.09 -0.05,-0.05 -0.09,-0.13 -0.09,-0.22l0 -3.44c0,-0.08 0.04,-0.16 0.09,-0.22 0.06,-0.05 0.14,-0.09 0.22,-0.09zm3.44 0.28l-3.44 0c-0.01,0 -0.01,0.01 -0.02,0.01 0,0.01 -0.01,0.01 -0.01,0.02l0 3.44c0,0.01 0.01,0.02 0.01,0.02 0.01,0.01 0.01,0.01 0.02,0.01l3.44 0c0.01,0 0.02,0 0.02,-0.01 0.01,0 0.01,-0.01 0.01,-0.02l0 -3.44c0,-0.01 0,-0.01 -0.01,-0.02 0,0 -0.01,-0.01 -0.02,-0.01z"/>
   <path fill="#444C5F" fill-rule="nonzero" d="M1.01 1.37l-0.35 0 0 1.43 1.12 0 0 -0.31 -0.77 0 0 -1.12zm2.22 0.69c0.09,-0.04 0.13,-0.12 0.13,-0.26l0 -0.12c0,-0.21 -0.09,-0.31 -0.3,-0.31l-1.02 0 0 1.43 1.06 0c0.21,0 0.3,-0.09 0.3,-0.31l0 -0.16c0,-0.15 -0.06,-0.24 -0.17,-0.27zm-0.33 -0.42c0.08,0 0.11,0.03 0.11,0.12l0 0.07c0,0.09 -0.02,0.12 -0.11,0.12l-0.51 0 0 -0.31 0.51 0zm0.15 0.78c0,0.08 -0.03,0.11 -0.11,0.11l-0.55 0 0 -0.35 0.55 0c0.09,0 0.11,0.03 0.11,0.12l0 0.12z"/>
  </g>
 </g>
</svg>
