<?xml version="1.0" encoding="UTF-8"?>
<!DOCTYPE svg PUBLIC "-//W3C//DTD SVG 1.0//EN" "http://www.w3.org/TR/2001/REC-SVG-20010904/DTD/svg10.dtd">
<!-- Creator: CorelDRAW 2019 (64-Bit) -->
<svg xmlns="http://www.w3.org/2000/svg" xml:space="preserve" width="649px" height="313px" version="1.0" shape-rendering="geometricPrecision" text-rendering="geometricPrecision" image-rendering="optimizeQuality" fill-rule="evenodd" clip-rule="evenodd"
viewBox="0 0 1417.89 684.73"
 xmlns:xlink="http://www.w3.org/1999/xlink"
 xmlns:xodm="http://www.corel.com/coreldraw/odm/2003">
 <g id="Слой_x0020_1">
  <metadata id="CorelCorpID_0Corel-Layer"/>
  <path fill="#F3D8E8" d="M610.86 645.8l2.1 -1.01c95.94,-46.51 198.43,-146.56 391,-360.09l1.42 -1.57 -1.54 0.03c-67.15,1.61 -123.67,1.11 -172.85,0.67 -38.06,-0.34 -71.74,-0.64 -102.21,0.09 -196.41,4.71 -271.17,51.58 -584.7,399.23l-1.42 1.58 1.54 -0.04c67.15,-1.61 123.68,-1.1 172.86,-0.67 38.06,0.35 71.74,0.65 102.21,-0.08 74.89,-1.8 132.09,-9.75 191.59,-38.14zm217.2 -358.83c48.98,0.43 103.58,0.94 169.77,-0.62 -309.81,343.42 -383.88,389.8 -577.36,394.44 -30.76,0.74 -62.63,0.44 -100.48,0.1 -48.98,-0.44 -105.21,-0.94 -171.4,0.62 309.8,-343.43 383.88,-389.81 577.35,-394.44 30.76,-0.74 64.27,-0.44 102.12,-0.1z"/>
  <path fill="#F3D8E8" d="M591.42 612.83l-2.11 1.01c-63.08,32.36 -122.4,41.1 -201.39,43l-2.54 0.06 -0.54 0.01c-30.76,0.74 -64.27,0.44 -102.12,0.1 -48.98,-0.44 -105.21,-0.94 -171.4,0.62l1.42 -1.58c179.67,-199.23 280.93,-299.65 371.61,-350 -92.22,49.23 -193.94,149.65 -377.53,353.22l-1.42 1.58 1.54 -0.04c67.15,-1.61 123.67,-1.11 172.86,-0.66 38.05,0.34 71.73,0.64 102.2,-0.09 82.33,-1.98 143.29,-11.39 209.42,-47.23z"/>
  <path fill="#E7BBD5" d="M1271.99 143.27c-22.98,11.02 -45.41,13.46 -70.66,14.07 -12.52,0.3 -25.08,0.14 -37.61,0.03 -18.52,-0.16 -37.01,-0.25 -55.52,0.08 -2.88,0.05 -5.75,0.11 -8.63,0.18l-0.94 0.02 0.63 -0.7c0.98,-1.08 1.96,-2.17 2.94,-3.25 18.07,-20.01 36.31,-39.96 55.1,-59.29 13.57,-13.95 27.58,-27.78 42.38,-40.43 19.98,-17.08 40.96,-31.65 66.59,-38.65 15.94,-4.36 32.46,-5.57 48.92,-5.97 12.52,-0.3 25.08,-0.14 37.61,-0.03 21.21,0.19 42.38,0.23 63.58,-0.25l1.51 -0.03 -1.15 1.28c-27.3,30.3 -55.42,61.54 -85.24,89.38 -17.44,16.27 -37.09,32.81 -58.74,43.19l-0.77 0.37zm-169.32 12.34c20.72,-0.47 41.4,-0.39 62.13,-0.2 12.31,0.11 24.65,0.26 36.96,-0.04 16.1,-0.38 32.25,-1.57 47.85,-5.81 25.52,-6.95 46.39,-21.57 66.22,-38.6 14.85,-12.75 28.9,-26.67 42.52,-40.71 18.71,-19.3 36.89,-39.2 54.9,-59.16 -20.53,0.46 -41,0.39 -61.53,0.2 -12.51,-0.11 -25.05,-0.26 -37.56,0.04 -16.1,0.39 -32.25,1.57 -47.85,5.81 -25.52,6.95 -46.39,21.57 -66.22,38.6 -14.85,12.75 -28.9,26.67 -42.52,40.71 -18.72,19.3 -36.89,39.2 -54.9,59.16z"/>
  <path fill="#E7BBD5" d="M1091.72 134.56c20.73,-0.47 41.41,-0.39 62.13,-0.2 12.51,0.11 25.05,0.26 37.56,-0.04l1.14 -0.03c26.85,-0.64 49.78,-3.39 73.92,-15.77l1.13 -0.54 0.36 0.7 -0.35 0.19c-25.27,13.69 -48.79,16.74 -77.22,17.42 -12.53,0.3 -25.09,0.15 -37.62,0.03 -21.21,-0.19 -42.36,-0.29 -63.58,0.25l-1.51 0.03 1.15 -1.28c26.38,-29.28 53.43,-59.21 82.07,-86.3 15.18,-14.37 31.97,-29.02 50.16,-39.9 5.8,-3.47 11.65,-6.18 17.72,-9.12 -5.69,3.24 -11.64,6.47 -17.22,9.91 -17.84,11.02 -34.36,25.59 -49.35,39.86 -28.05,26.7 -54.57,56.02 -80.49,84.79z"/>
  <path fill="#40434A" fill-rule="nonzero" d="M1023.64 263.45l0 -21.41 41.29 0c4.88,0 8.01,2.82 9.38,6.44 0.51,1.36 0.77,2.82 0.77,4.26 0,1.45 -0.26,2.91 -0.77,4.27 -0.66,1.72 -1.71,3.27 -3.17,4.41 1.46,1.16 2.51,2.71 3.16,4.44 0.52,1.36 0.77,2.83 0.77,4.28 0,1.45 -0.25,2.92 -0.77,4.29 -1.36,3.63 -4.49,6.46 -9.37,6.46l-41.29 0 0 -17.44zm341.62 -21.41c2.8,0 5.33,1.14 7.16,2.97 1.84,1.84 2.98,4.37 2.98,7.17l0 18.57c0,2.79 -1.14,5.32 -2.97,7.16 -1.84,1.84 -4.37,2.98 -7.17,2.98l-41.3 0 0 -38.85 41.3 0zm4.29 5.84c-1.1,-1.1 -2.61,-1.79 -4.29,-1.79l-37.24 0 0 30.75 37.24 0c1.68,0 3.19,-0.69 4.3,-1.79 1.1,-1.1 1.78,-2.62 1.78,-4.3l0 -18.57c0,-1.67 -0.68,-3.2 -1.79,-4.3zm-90.94 -5.84l31.15 0c2.8,0 5.33,1.14 7.17,2.97 1.83,1.84 2.98,4.37 2.98,7.17l0 18.57c0,2.79 -1.15,5.32 -2.98,7.16 -1.84,1.84 -4.37,2.98 -7.17,2.98l-31.15 0c-2.8,0 -5.34,-1.14 -7.17,-2.97 -1.83,-1.85 -2.98,-4.38 -2.98,-7.17l0 -18.57c0,-2.79 1.15,-5.33 2.98,-7.17 1.83,-1.83 4.37,-2.97 7.17,-2.97zm31.15 4.05l-31.15 0c-1.68,0 -3.2,0.69 -4.3,1.79 -1.1,1.11 -1.79,2.63 -1.79,4.3l0 18.57c0,1.68 0.68,3.2 1.78,4.3 1.11,1.1 2.63,1.79 4.31,1.79l31.15 0c1.67,0 3.2,-0.69 4.3,-1.79 1.1,-1.1 1.79,-2.62 1.79,-4.3l0 -18.57c0,-1.67 -0.69,-3.2 -1.79,-4.3 -1.1,-1.1 -2.63,-1.79 -4.3,-1.79zm-102.86 -4.05l2.02 0 0 4.05 -41.29 0c-1.68,0 -3.2,0.69 -4.3,1.79 -1.1,1.1 -1.79,2.63 -1.79,4.3l0 18.57c0,1.68 0.68,3.2 1.78,4.3l0.01 0c1.1,1.11 2.62,1.79 4.3,1.79l31.15 0c1.67,0 3.19,-0.69 4.3,-1.79 1.1,-1.1 1.79,-2.62 1.79,-4.3l0 -7.26 -23.7 0 0 -4.05 27.75 0 0 11.31c0,2.8 -1.14,5.33 -2.97,7.17 -1.84,1.83 -4.38,2.97 -7.17,2.97l-31.15 0c-2.79,0 -5.32,-1.14 -7.16,-2.97l-0.01 -0.01c-1.83,-1.84 -2.98,-4.37 -2.98,-7.16l0 -18.57c0,-2.8 1.15,-5.33 2.98,-7.17 1.84,-1.83 4.38,-2.97 7.17,-2.97l39.27 0zm16.22 0l31.15 0c2.79,0 5.33,1.14 7.16,2.97 1.84,1.84 2.98,4.38 2.98,7.17l0 18.57c0,2.79 -1.14,5.32 -2.97,7.16 -1.84,1.84 -4.38,2.98 -7.17,2.98l-31.15 0c-2.79,0 -5.33,-1.14 -7.16,-2.97l-0.01 -0.01c-1.83,-1.84 -2.97,-4.37 -2.97,-7.16l0 -18.57c0,-2.79 1.14,-5.33 2.97,-7.17 1.84,-1.83 4.38,-2.97 7.17,-2.97zm31.15 4.05l-31.15 0c-1.67,0 -3.2,0.69 -4.3,1.79 -1.1,1.11 -1.79,2.63 -1.79,4.3l0 18.57c0,1.68 0.69,3.2 1.79,4.3 1.1,1.1 2.62,1.79 4.3,1.79l31.15 0c1.68,0 3.2,-0.69 4.3,-1.79 1.1,-1.1 1.78,-2.62 1.78,-4.3l0 -18.57c0,-1.67 -0.68,-3.19 -1.78,-4.3 -1.1,-1.1 -2.62,-1.79 -4.3,-1.79zm-125.39 30.75l2.03 0 0 4.05 -41.29 0c-2.78,0 -5.32,-1.14 -7.16,-2.97l0 -0.01c-1.84,-1.84 -2.98,-4.37 -2.98,-7.16l0 -18.57c0,-2.79 1.14,-5.33 2.98,-7.17 1.83,-1.83 4.37,-2.97 7.16,-2.97l31.14 0c4.88,0 8.01,2.82 9.39,6.44 0.51,1.36 0.77,2.82 0.77,4.26 0,1.45 -0.26,2.91 -0.77,4.26 -1.37,3.62 -4.51,6.45 -9.39,6.45l-37.22 0 0 7.3c0,1.68 0.68,3.2 1.78,4.3l0 0.01c1.1,1.1 2.62,1.78 4.3,1.78l39.26 0zm-45.34 -24.66l0 7.21 37.22 0c2.92,0 4.79,-1.67 5.6,-3.81 0.33,-0.88 0.5,-1.85 0.5,-2.84 0,-0.98 -0.17,-1.95 -0.5,-2.83 -0.82,-2.14 -2.68,-3.82 -5.6,-3.82l-31.14 0c-1.67,0 -3.19,0.69 -4.3,1.79 -1.1,1.1 -1.78,2.63 -1.78,4.3zm-55.84 7.21l37.23 0c2.91,0 4.78,-1.67 5.59,-3.81 0.33,-0.88 0.5,-1.85 0.5,-2.84 0,-0.98 -0.17,-1.95 -0.5,-2.83 -0.81,-2.14 -2.68,-3.82 -5.59,-3.82l-37.23 0 0 13.3zm37.23 4.06l-37.23 0 0 13.39 37.23 0c2.91,0 4.77,-1.69 5.58,-3.84 0.34,-0.89 0.51,-1.87 0.51,-2.86 0,-0.99 -0.17,-1.96 -0.51,-2.85 -0.81,-2.16 -2.67,-3.84 -5.58,-3.84z"/>
  <path fill="#40434A" d="M734.2 178.27l0 10.78 105.18 0c6.07,0 11.03,-4.96 11.03,-11.04l0 -9.45c0,-6.08 -4.95,-11.03 -11.03,-11.03l-81.14 0c-7.93,0 -14.39,-6.47 -14.39,-14.39l0 -9.46c0,-7.92 6.47,-14.39 14.39,-14.39l104.93 0 0 -1.31c0,-5.22 -4.25,-9.47 -9.46,-9.47l-95.6 0c-13.79,0 -25.04,11.25 -25.04,25.04l0 9.72c0,13.79 11.25,25.03 25.04,25.03l81.53 0 0 9.97 -105.44 0zm549.27 -69.76l-16.54 0 43.28 43.29 0 -16.55 -26.74 -26.74zm91.71 94.67l-13.59 0 -45.65 -45.65 16.54 0 42.7 42.7 0 2.95zm-42.69 -49.01l-16.55 0 45.65 -45.66 13.59 0 0 2.96 -42.69 42.7zm-18.92 -18.92l0 16.55 43.28 -43.29 -16.54 0 -26.74 26.74zm26.74 67.93l16.54 0 -43.28 -43.28 0 16.54 26.74 26.74zm-30.1 -26.74l0 -16.54 -43.28 43.28 16.54 0 26.74 -26.74zm-61.61 26.74l13.58 0 45.66 -45.65 -16.55 0 -42.69 42.7 0 2.95zm42.69 -49.01l16.55 0 -45.66 -45.66 -13.58 0 0 2.96 42.69 42.7zm-58.73 14.05l0 -34.67c0,-13.79 -11.25,-25.04 -25.04,-25.04l-81.4 0c-13.79,0 -25.04,11.25 -25.04,25.04l0 20.53 10.78 0 0 -20.4c0,-7.92 6.46,-14.39 14.39,-14.39l81.14 0c7.93,0 14.39,6.47 14.39,14.39l0 23.76 -106.56 0 0 20.57c0,6.08 4.96,11.04 11.03,11.04l104.93 0 0 -10.78 -105.18 0 0 -10.05 106.56 0zm-1.38 24.18l-104.93 0c-7.92,0 -14.39,-6.46 -14.39,-14.39l0 -20.57 -10.78 0 0 20.7c0,13.79 11.25,25.04 25.04,25.04l95.6 0c5.21,0 9.46,-4.25 9.46,-9.46l0 -1.32zm-115.96 -38.32l103.21 0 0 -20.4c0,-6.07 -4.96,-11.03 -11.04,-11.03l-81.14 0c-6.08,0 -11.03,4.96 -11.03,11.03l0 20.4zm92.43 -10.78l-81.65 0 0 -9.87 81.65 0 0 9.87zm-145.29 -96.62l0 147.04c0,5.21 4.25,9.46 9.46,9.46l1.32 0 0 -156.5 -10.78 0zm14.14 0l0 156.5 10.77 0 0 -147.03c0,-5.22 -4.24,-9.47 -9.46,-9.47l-1.31 0zm-52.86 0l0 147.04c0,5.21 4.25,9.46 9.46,9.46l1.32 0 0 -156.5 -10.78 0zm14.14 0l0 156.5 10.78 0 0 -147.03c0,-5.22 -4.25,-9.47 -9.47,-9.47l-1.31 0zm-27.94 121.54l0 -34.67c0,-13.79 -11.25,-25.04 -25.04,-25.04l-81.4 0c-13.79,0 -25.04,11.25 -25.04,25.04l0 20.53 10.78 0 0 -20.4c0,-7.92 6.46,-14.39 14.38,-14.39l81.14 0c7.93,0 14.4,6.47 14.4,14.39l0 23.76 -106.57 0 0 20.57c0,6.08 4.96,11.04 11.03,11.04l104.94 0 0 -10.78 -105.19 0 0 -10.05 106.57 0zm-1.38 24.18l-104.94 0c-7.92,0 -14.38,-6.46 -14.38,-14.39l0 -20.57 -10.78 0 0 20.7c0,13.79 11.25,25.04 25.04,25.04l95.6 0c5.21,0 9.46,-4.25 9.46,-9.46l0 -1.32zm-115.97 -38.32l103.21 0 0 -20.4c0,-6.07 -4.96,-11.03 -11.04,-11.03l-81.14 0c-6.07,0 -11.03,4.96 -11.03,11.03l0 20.4zm92.43 -10.78l-81.65 0 0 -9.87 81.65 0 0 9.87zm-121.75 -20.65l-104.93 0c-6.08,0 -11.03,4.96 -11.03,11.03l0 9.46c0,6.07 4.95,11.03 11.03,11.03l81.14 0c7.93,0 14.39,6.46 14.39,14.39l0 9.45c0,7.93 -6.47,14.39 -14.39,14.39l-105.18 0 0 1.32c0,5.21 4.24,9.46 9.46,9.46l95.85 0c13.79,0 25.04,-11.25 25.04,-25.04l0 -9.71c0,-13.79 -11.25,-25.04 -25.04,-25.04l-81.52 0 0 -9.96 105.18 0 0 -10.78z"/>
  <path fill="#AE4A84" d="M179.44 437c11.35,-4.35 17.03,-15.62 17.03,-33.3l0 -13.07c0,-27.92 -12.34,-40.47 -39,-40.47l-157.47 0 0 179.32 162.41 0c26.66,0 39,-12.56 39,-40.48l0 -16.91c0,-19.72 -7.41,-31.25 -21.97,-35.09zm1063.36 -44.83c-26.66,0 -39,12.55 -39,40.48l0 8.96 49.61 0 0 -3.33c0,-8.45 2.71,-11.27 10.86,-11.27l45.91 0c10.12,0 13.33,3.33 13.33,13.83l0 8.71 -94.04 0c-20.49,0 -31.6,11.28 -31.6,32.79l0 14.35c0,21.52 11.11,32.79 31.6,32.79l55.04 0c11.35,0 19.74,-0.77 25.42,-2.57 5.43,-1.79 11.36,-5.63 18.02,-11.52l3.95 14.09 43.19 0 0 -90.69c0,-32.79 -13.33,-46.62 -44.92,-46.62l-87.37 0zm16.04 105.8c-7.16,0 -9.38,-2.05 -9.38,-9.48l0 -4.35c0,-7.18 2.22,-9.48 9.38,-9.48l64.67 0 0 12.8 -5.93 5.13c-4.19,3.59 -9.62,5.38 -16.29,5.38l-42.45 0zm-246.58 -15.12c0,32.79 13.33,46.63 44.92,46.63l82.93 0c31.59,0 44.92,-13.84 44.92,-46.63l0 -13.83 -49.61 0 0 5.64c0,10.5 -3.21,13.57 -13.33,13.57l-44.92 0c-10.12,0 -13.33,-3.07 -13.33,-13.57l0 -27.67c0,-10.5 3.21,-13.58 13.33,-13.58l44.92 0c10.12,0 13.33,3.08 13.33,13.58l0 4.36 49.61 0 0 -12.56c0,-32.79 -13.33,-46.62 -44.92,-46.62l-82.93 0c-31.59,0 -44.92,13.83 -44.92,46.62l0 44.06zm-15.81 -100.92l0 -31.77 -52.57 0 0 31.77 52.57 0zm0 147.55l0 -137.31 -52.57 0 0 137.31 52.57 0zm-153.28 -137.31c-11.85,0 -20.73,1.03 -26.41,2.82 -5.92,1.79 -12.59,6.15 -19.74,12.55l-3.95 -15.37 -43.45 0 0 137.31 51.84 0 0 -84.28 5.43 -4.87c3.95,-3.84 10.36,-5.64 19.25,-5.64l36.04 0c10.12,0 13.08,3.08 13.08,13.58l0 81.21 51.58 0 0 -90.69c0,-32.79 -13.32,-46.62 -44.92,-46.62l-38.75 0zm-241.89 0c-26.66,0 -39,12.55 -39,40.48l0 8.96 49.61 0 0 -3.33c0,-8.45 2.72,-11.27 10.86,-11.27l45.91 0c10.12,0 13.33,3.33 13.33,13.83l0 8.71 -94.04 0c-20.49,0 -31.59,11.28 -31.59,32.79l0 14.35c0,21.52 11.1,32.79 31.59,32.79l55.04 0c11.36,0 19.75,-0.77 25.42,-2.57 5.43,-1.79 11.36,-5.63 18.02,-11.52l3.95 14.09 43.19 0 0 -90.69c0,-32.79 -13.32,-46.62 -44.92,-46.62l-87.37 0zm16.04 105.8c-7.16,0 -9.38,-2.05 -9.38,-9.48l0 -4.35c0,-7.18 2.22,-9.48 9.38,-9.48l64.67 0 0 12.8 -5.92 5.13c-4.2,3.59 -9.63,5.38 -16.3,5.38l-42.45 0zm-69.86 -105.8l-62.44 0 0 -30.74 -41.71 0 -9.88 30.74 -33.57 0 0 40.48 33.57 0 0 56.35c0,27.92 12.34,40.48 39,40.48l75.03 0 0 -41.25 -51.58 0c-8.15,0 -10.86,-2.81 -10.86,-11.27l0 -44.31 62.44 0 0 -40.48zm-198.94 137.31c31.59,0 44.92,-13.84 44.92,-46.63l0 -44.06c0,-32.79 -13.33,-46.62 -44.92,-46.62l-89.84 0c-31.6,0 -44.93,13.83 -44.93,46.62l0 44.06c0,32.79 13.33,46.63 44.93,46.63l89.84 0zm-69.85 -41.25c-10.12,0 -13.33,-3.07 -13.33,-13.57l0 -27.67c0,-10.5 3.21,-13.58 13.33,-13.58l49.85 0c10.13,0 13.33,3.08 13.33,13.58l0 27.67c0,10.5 -3.2,13.57 -13.33,13.57l-49.85 0zm-147.86 -96.83c8.15,0 10.87,2.82 10.87,11.27l0 7.18c0,8.45 -2.72,11.27 -10.87,11.27l-76.02 0 0 -29.72 76.02 0zm15.8 85.56c0,8.46 -2.71,11.27 -10.86,11.27l-80.96 0 0 -33.55 80.96 0c8.15,0 10.86,2.81 10.86,11.27l0 11.01z"/>
  <path fill="#AE4A84" d="M822.01 664.75c-1.42,8.74 2.16,13.15 10.73,13.15l32.46 0c8.57,0 12.48,-3.16 13.9,-11.81l1.66 -9.49c1.42,-8.57 -2.16,-12.24 -10.82,-13.15l-24.72 -2.33c-2.99,-0.25 -3.57,-1.25 -3.16,-4.66l0.17 -1.09c0.58,-3.41 1.75,-4.66 5.16,-4.66l17.98 0c3.41,0 4.57,1.25 4.16,4.66l-0.17 1.25 13.82 0 0.58 -3.82c1.42,-8.74 -2.17,-13.15 -10.74,-13.15l-30.46 0c-8.57,0 -12.48,3.16 -13.9,11.81l-1.41 7.99c-1.41,8.41 2.16,12.07 10.82,12.99l24.72 2.33c3.08,0.25 3.74,1.25 3.16,4.82l-0.42 2.58c-0.58,3.58 -1.74,4.66 -5.16,4.66l-19.97 0c-3.58,0 -4.58,-1.24 -4.16,-4.66l0.33 -2.24 -13.82 0 -0.74 4.82zm108.77 13.15c10.98,0 15.98,-4.24 17.97,-15.31l4.66 -25.97c2,-10.98 -2.99,-16.97 -13.98,-16.97l-26.79 0c-10.99,0 -15.98,4.24 -17.98,15.31l-4.66 25.97c-2,10.98 2.99,16.97 13.98,16.97l26.8 0zm-20.14 -12.15c-5,0 -6.83,-2.16 -5.91,-7.15l3.58 -20.14c0.91,-5 2.83,-6.66 7.82,-6.66l16.65 0c4.99,0 6.82,2.16 5.9,7.16l-3.57 20.14c-0.92,4.99 -2.83,6.65 -7.83,6.65l-16.64 0zm102.78 -46.1l-48.11 0 -10.32 58.25 14.32 0 3.83 -21.47 30.46 0 2.08 -11.82 -30.46 0 2.16 -12.48 33.79 0 2.25 -12.48zm8.65 0l-2.33 12.65 20.22 0 -8.07 45.6 14.31 0 8.08 -45.6 20.05 0 2.33 -12.65 -54.59 0zm99.28 0l-14.31 0 -10.32 58.25 45.6 0 2.25 -12.65 -31.29 0 8.07 -45.6zm29.29 58.25l14.48 0 10.32 -58.25 -14.48 0 -10.32 58.25zm69.33 0c10.98,0 16.06,-4.24 17.97,-15.31l3 -17.14 -28.8 0 -1.83 10.82 14.98 0 -0.66 3.49c-1,5.08 -2.75,6.66 -7.74,6.66l-17.23 0c-4.99,0 -6.74,-2.08 -5.83,-7.16l3.66 -21.14c0.92,-5.08 2.75,-6.66 7.83,-6.66l16.64 0c5.08,0 6.83,2.09 5.91,7.16l-0.33 1.91 14.4 0 0.66 -3.91c1.92,-10.98 -2.99,-16.97 -13.98,-16.97l-26.8 0c-10.98,0 -15.98,4.24 -17.97,15.31l-4.66 25.97c-2,10.98 2.99,16.97 13.98,16.97l26.8 0zm74.14 -36.61l-27.96 0 3.83 -21.64 -14.31 0 -10.32 58.25 14.31 0 4.24 -23.96 27.97 0 -4.25 23.96 14.32 0 10.32 -58.25 -14.32 0 -3.83 21.64zm26.63 -21.64l-2.33 12.65 20.23 0 -8.08 45.6 14.32 0 8.07 -45.6 20.06 0 2.33 -12.65 -54.6 0z"/>
 </g>
</svg>
