<?xml version="1.0" encoding="UTF-8"?>
<!DOCTYPE svg PUBLIC "-//W3C//DTD SVG 1.1//EN" "http://www.w3.org/Graphics/SVG/1.1/DTD/svg11.dtd">
<!-- Creator: CorelDRAW 2019 (64-Bit) -->
<svg xmlns="http://www.w3.org/2000/svg" xml:space="preserve" width="130px" height="47px" version="1.1" style="shape-rendering:geometricPrecision; text-rendering:geometricPrecision; image-rendering:optimizeQuality; fill-rule:evenodd; clip-rule:evenodd"
viewBox="0 0 128.675 46.918"
 xmlns:xlink="http://www.w3.org/1999/xlink"
 xmlns:xodm="http://www.corel.com/coreldraw/odm/2003">
 <defs>
  <style type="text/css">
   <![CDATA[
    .fil1 {fill:#2C333B}
    .fil0 {fill:#2C333B;fill-rule:nonzero}
   ]]>
  </style>
 </defs>
 <g id="Слой_x0020_1">
  <metadata id="CorelCorpID_0Corel-Layer"/>
  <g id="_2850078353152">
   <path class="fil0" d="M58.208 43.423l0 -4.289 8.271 0c0.977,0 1.604,0.566 1.879,1.291 0.102,0.271 0.154,0.564 0.154,0.854 0,0.289 -0.052,0.582 -0.154,0.854 -0.131,0.346 -0.342,0.655 -0.635,0.885 0.293,0.231 0.504,0.541 0.635,0.889 0.102,0.273 0.154,0.567 0.154,0.857 0,0.291 -0.052,0.585 -0.154,0.858 -0.275,0.727 -0.901,1.296 -1.879,1.296l-8.271 0 0 -3.495zm68.436 -4.289c0.559,0 1.068,0.228 1.435,0.595 0.368,0.369 0.596,0.877 0.596,1.437l0 3.72c0,0.559 -0.228,1.066 -0.596,1.435 -0.367,0.369 -0.875,0.597 -1.435,0.597l-8.274 0 0 -7.784 8.274 0zm0.859 1.171c-0.22,-0.221 -0.524,-0.358 -0.859,-0.358l-7.461 0 0 6.159 7.461 0c0.335,0 0.639,-0.138 0.86,-0.359 0.221,-0.22 0.358,-0.525 0.358,-0.861l0 -3.72c0,-0.336 -0.137,-0.641 -0.359,-0.861zm-18.218 -1.171l6.24 0c0.561,0 1.068,0.228 1.436,0.595 0.368,0.369 0.597,0.877 0.597,1.437l0 3.72c0,0.559 -0.229,1.066 -0.597,1.435 -0.368,0.369 -0.875,0.597 -1.436,0.597l-6.24 0c-0.56,0 -1.069,-0.228 -1.436,-0.596 -0.368,-0.37 -0.597,-0.878 -0.597,-1.436l0 -3.72c0,-0.56 0.229,-1.068 0.597,-1.437 0.367,-0.367 0.876,-0.595 1.436,-0.595zm6.24 0.813l-6.24 0c-0.336,0 -0.641,0.137 -0.861,0.358 -0.221,0.221 -0.358,0.525 -0.358,0.861l0 3.72c0,0.337 0.136,0.641 0.356,0.861 0.222,0.221 0.527,0.359 0.863,0.359l6.24 0c0.336,0 0.64,-0.138 0.861,-0.359 0.222,-0.22 0.359,-0.525 0.359,-0.861l0 -3.72c0,-0.336 -0.137,-0.641 -0.359,-0.861 -0.221,-0.221 -0.525,-0.358 -0.861,-0.358zm-20.606 -0.813l0.406 0 0 0.813 -8.272 0c-0.336,0 -0.641,0.137 -0.861,0.358 -0.221,0.22 -0.358,0.525 -0.358,0.861l0 3.72c0,0.337 0.136,0.641 0.356,0.861l0.002 0.001c0.22,0.221 0.524,0.358 0.861,0.358l6.24 0c0.336,0 0.64,-0.138 0.861,-0.359 0.222,-0.221 0.358,-0.526 0.358,-0.861l0.002 -1.453 -4.748 0 0 -0.814 5.558 0 0 2.267c0.001,0.56 -0.227,1.068 -0.595,1.436 -0.368,0.368 -0.876,0.596 -1.436,0.596l-6.24 0c-0.558,0 -1.066,-0.228 -1.435,-0.596l-0.002 -0.001c-0.367,-0.369 -0.595,-0.877 -0.595,-1.435l0 -3.72c0,-0.56 0.228,-1.068 0.595,-1.437 0.369,-0.367 0.877,-0.595 1.437,-0.595l7.866 0zm3.25 0l6.241 0c0.559,0 1.068,0.228 1.435,0.595 0.367,0.369 0.596,0.877 0.596,1.437l0 3.72c0,0.559 -0.229,1.066 -0.596,1.435 -0.367,0.369 -0.876,0.597 -1.435,0.597l-6.241 0c-0.559,0 -1.066,-0.228 -1.434,-0.596l-0.002 -0.001c-0.367,-0.369 -0.596,-0.876 -0.596,-1.435l0 -3.72c0,-0.56 0.229,-1.068 0.596,-1.437 0.368,-0.367 0.876,-0.595 1.436,-0.595zm6.241 0.813l-6.241 0c-0.335,0 -0.64,0.137 -0.861,0.358 -0.221,0.221 -0.359,0.525 -0.359,0.861l0 3.72c0,0.336 0.138,0.641 0.359,0.862 0.22,0.22 0.525,0.358 0.861,0.358l6.241 0c0.335,0 0.64,-0.138 0.861,-0.359 0.22,-0.22 0.357,-0.525 0.357,-0.861l0 -3.72c0,-0.336 -0.137,-0.64 -0.358,-0.861 -0.221,-0.221 -0.525,-0.358 -0.86,-0.358zm-25.12 6.159l0.406 0 0 0.812 -8.27 0c-0.557,0 -1.066,-0.228 -1.434,-0.596l-0.001 -0.001c-0.369,-0.369 -0.597,-0.877 -0.597,-1.435l0 -3.72c0,-0.56 0.228,-1.068 0.597,-1.437 0.367,-0.367 0.875,-0.595 1.435,-0.595l6.238 0c0.978,0 1.605,0.566 1.88,1.291 0.103,0.271 0.155,0.564 0.155,0.854 0,0.289 -0.052,0.582 -0.155,0.854 -0.274,0.724 -0.902,1.29 -1.88,1.29l-7.457 0 0 1.463c0,0.337 0.137,0.641 0.357,0.861l0.001 0.002c0.22,0.22 0.525,0.357 0.861,0.357l7.864 0zm-9.083 -4.94l0 1.445 7.457 0c0.584,0 0.959,-0.335 1.121,-0.764 0.067,-0.177 0.101,-0.372 0.101,-0.568 0,-0.197 -0.034,-0.392 -0.101,-0.568 -0.163,-0.429 -0.537,-0.764 -1.121,-0.764l-6.238 0c-0.335,0 -0.64,0.137 -0.861,0.358 -0.221,0.22 -0.358,0.525 -0.358,0.861zm-11.185 1.445l7.457 0c0.584,0 0.957,-0.335 1.12,-0.764 0.068,-0.176 0.101,-0.371 0.101,-0.568 0,-0.197 -0.033,-0.392 -0.101,-0.568 -0.163,-0.429 -0.536,-0.764 -1.12,-0.764l-7.457 0 0 2.664zm7.457 0.812l-7.457 0 0 2.683 7.457 0c0.583,0 0.957,-0.338 1.119,-0.77 0.067,-0.177 0.102,-0.374 0.102,-0.572 0,-0.198 -0.035,-0.394 -0.102,-0.572 -0.162,-0.431 -0.536,-0.769 -1.119,-0.769z"/>
   <path class="fil1" d="M0.226 26.359l0 2.16 21.07 0c1.217,0 2.211,-0.994 2.211,-2.211l0 -1.893c0,-1.217 -0.993,-2.21 -2.211,-2.21l-16.254 0c-1.588,0 -2.883,-1.296 -2.883,-2.883l0 -1.894c0,-1.588 1.296,-2.883 2.883,-2.883l21.021 0 0 -0.264c0,-1.044 -0.852,-1.895 -1.896,-1.895l-19.151 0c-2.762,0 -5.016,2.254 -5.016,5.016l0 1.946c0,2.762 2.254,5.015 5.016,5.015l16.332 0 0 1.996 -21.122 0zm110.034 -13.973l-3.315 0 8.671 8.671 0 -3.315 -5.356 -5.356zm18.37 18.964l-2.721 0 -9.145 -9.145 3.313 0 8.553 8.553 0 0.592zm-8.552 -9.818l-3.314 0 9.145 -9.146 2.721 0 0 0.593 -8.552 8.553zm-3.791 -3.79l0 3.315 8.671 -8.671 -3.314 0 -5.357 5.356zm5.357 13.608l3.314 0 -8.671 -8.67 0 3.314 5.357 5.356zm-6.028 -5.356l0 -3.314 -8.671 8.67 3.315 0 5.356 -5.356zm-12.343 5.356l2.721 0 9.146 -9.145 -3.314 0 -8.553 8.553 0 0.592zm8.553 -9.818l3.314 0 -9.146 -9.146 -2.721 0 0 0.593 8.553 8.553zm-11.766 2.814l0 -6.944c0,-2.762 -2.253,-5.016 -5.015,-5.016l-16.308 0c-2.762,0 -5.015,2.253 -5.015,5.016l0 4.112 2.159 0 0 -4.086c0,-1.588 1.295,-2.883 2.883,-2.883l16.255 0c1.587,0 2.882,1.295 2.882,2.883l0 4.759 -21.348 0 0 4.121c0,1.217 0.994,2.211 2.211,2.211l21.02 0 0 -2.16 -21.071 0 0 -2.013 21.347 0zm-0.276 4.845l-21.02 0c-1.588,0 -2.883,-1.295 -2.883,-2.883l0 -4.121 -2.159 0 0 4.147c0,2.763 2.253,5.016 5.015,5.016l19.152 0c1.044,0 1.895,-0.851 1.895,-1.895l0 -0.264zm-23.231 -7.677l20.676 0 0 -4.086c0,-1.217 -0.993,-2.21 -2.21,-2.21l-16.255 0c-1.218,0 -2.211,0.993 -2.211,2.21l0 4.086zm18.517 -2.158l-16.357 0 0 -1.979 16.357 0 0 1.979zm-29.105 -19.356l0 29.455c0,1.044 0.851,1.895 1.896,1.895l0.264 0 0 -31.35 -2.16 0zm2.832 0l0 31.35 2.159 0 0 -29.454c0,-1.045 -0.851,-1.896 -1.895,-1.896l-0.264 0zm-10.589 0l0 29.455c0,1.044 0.852,1.895 1.896,1.895l0.264 0 0 -31.35 -2.16 0zm2.832 0l0 31.35 2.16 0 0 -29.454c0,-1.045 -0.852,-1.896 -1.896,-1.896l-0.264 0zm-5.597 24.346l0 -6.944c0,-2.763 -2.253,-5.016 -5.016,-5.016l-16.307 0c-2.762,0 -5.016,2.253 -5.016,5.016l0 4.112 2.16 0 0 -4.086c0,-1.588 1.295,-2.883 2.882,-2.883l16.255 0c1.588,0 2.883,1.295 2.883,2.883l0 4.759 -21.348 0 0 4.121c0,1.217 0.994,2.211 2.21,2.211l21.021 0 0 -2.16 -21.072 0 0 -2.013 21.348 0zm-0.276 4.845l-21.021 0c-1.587,0 -2.882,-1.295 -2.882,-2.883l0 -4.121 -2.16 0 0 4.147c0,2.763 2.254,5.016 5.016,5.016l19.152 0c1.043,0 1.895,-0.851 1.895,-1.895l0 -0.264zm-23.231 -7.677l20.675 0 0 -4.086c0,-1.217 -0.993,-2.21 -2.21,-2.21l-16.255 0c-1.217,0 -2.21,0.993 -2.21,2.21l0 4.086zm18.516 -2.158l-16.357 0 0 -1.979 16.357 0 0 1.979zm-24.389 -4.138l-21.021 0c-1.217,0 -2.211,0.993 -2.211,2.21l0 1.894c0,1.217 0.994,2.21 2.211,2.21l16.254 0c1.588,0 2.883,1.295 2.883,2.883l0 1.893c0,1.588 -1.295,2.883 -2.883,2.883l-21.07 0 0 0.264c0,1.044 0.851,1.895 1.895,1.895l19.202 0c2.762,0 5.016,-2.254 5.016,-5.016l0 -1.946c0,-2.762 -2.253,-5.015 -5.016,-5.015l-16.332 0 0 -1.996 21.072 0 0 -2.159z"/>
  </g>
 </g>
</svg>
