<?xml version="1.0" encoding="UTF-8"?>
<!DOCTYPE svg PUBLIC "-//W3C//DTD SVG 1.1//EN" "http://www.w3.org/Graphics/SVG/1.1/DTD/svg11.dtd">
<!-- Creator: CorelDRAW 2019 (64-Bit) -->
<svg xmlns="http://www.w3.org/2000/svg" xml:space="preserve" width="2020px" height="850px" version="1.1" style="shape-rendering:geometricPrecision; text-rendering:geometricPrecision; image-rendering:optimizeQuality; fill-rule:evenodd; clip-rule:evenodd"
viewBox="0 0 130.02 54.68"
 xmlns:xlink="http://www.w3.org/1999/xlink"
 xmlns:xodm="http://www.corel.com/coreldraw/odm/2003">
 <defs>
  <style type="text/css">
   <![CDATA[
    .str0 {stroke:#4D5159;stroke-width:0.32;stroke-linecap:round;stroke-linejoin:round;stroke-miterlimit:22.9256}
    .fil4 {fill:none}
    .fil3 {fill:#4D5159}
    .fil1 {fill:#4D5159}
    .fil2 {fill:#4D5159;fill-rule:nonzero}
    .fil0 {fill:#4D5159;fill-rule:nonzero}
   ]]>
  </style>
 </defs>
 <g id="Слой_x0020_3">
  <metadata id="CorelCorpID_0Corel-Layer"/>
  <path class="fil0" d="M129.77 12.13c0.14,0 0.25,0.12 0.25,0.26l0 1.65c0,0.11 -0.06,0.2 -0.15,0.24l-72.46 38.31c-0.04,0.03 -0.08,0.04 -0.13,0.04l-57.02 0c-0.14,0 -0.26,-0.11 -0.26,-0.26l0 -1.65c0,-0.1 0.06,-0.19 0.15,-0.23l72.46 -38.32c0.04,-0.02 0.09,-0.04 0.14,-0.04l57.02 0zm-128.48 38.33l55.92 0 71.52 -37.81 -55.92 0 -71.52 37.81zm55.73 0.52l-56.51 0 0 1.14 56.51 0 0 -1.14zm0.51 -0.1l0 1.07 71.98 -38.06 0 -1.07 -71.98 38.06z"/>
  <path class="fil1" d="M53.36 51.2l3.44 0 0 0.71 -3.44 0 0 -0.71zm-52.68 0l3.44 0 0 0.71 -3.44 0 0 -0.71zm3.76 0l3.44 0 0 0.71 -3.44 0 0 -0.71zm3.76 0l3.44 0 0 0.71 -3.44 0 0 -0.71zm3.77 0l3.44 0 0 0.71 -3.44 0 0 -0.71zm3.76 0l3.44 0 0 0.71 -3.44 0 0 -0.71zm3.76 0l3.44 0 0 0.71 -3.44 0 0 -0.71zm3.77 0l3.43 0 0 0.71 -3.43 0 0 -0.71zm3.76 0l3.44 0 0 0.71 -3.44 0 0 -0.71zm3.76 0l3.44 0 0 0.71 -3.44 0 0 -0.71zm3.76 0l3.44 0 0 0.71 -3.44 0 0 -0.71zm3.77 0l3.44 0 0 0.71 -3.44 0 0 -0.71zm3.76 0l3.44 0 0 0.71 -3.44 0 0 -0.71zm3.76 0l3.44 0 0 0.71 -3.44 0 0 -0.71zm3.77 0l3.43 0 0 0.71 -3.43 0 0 -0.71zm6.94 0.26l-2.92 0 0 0.19 2.92 0 0 -0.19zm-52.68 0l-2.92 0 0 0.19 2.92 0 0 -0.19zm3.76 0l-2.92 0 0 0.19 2.92 0 0 -0.19zm3.77 0l-2.93 0 0 0.19 2.93 0 0 -0.19zm3.76 0l-2.92 0 0 0.19 2.92 0 0 -0.19zm3.76 0l-2.92 0 0 0.19 2.92 0 0 -0.19zm3.76 0l-2.92 0 0 0.19 2.92 0 0 -0.19zm3.77 0l-2.93 0 0 0.19 2.93 0 0 -0.19zm3.76 0l-2.92 0 0 0.19 2.92 0 0 -0.19zm3.76 0l-2.92 0 0 0.19 2.92 0 0 -0.19zm3.77 0l-2.93 0 0 0.19 2.93 0 0 -0.19zm3.76 0l-2.93 0 0 0.19 2.93 0 0 -0.19zm3.76 0l-2.92 0 0 0.19 2.92 0 0 -0.19zm3.76 0l-2.92 0 0 0.19 2.92 0 0 -0.19zm3.77 0l-2.93 0 0 0.19 2.93 0 0 -0.19z"/>
  <g id="_1741613910448">
   <polygon class="fil2" points="28.86,48.42 28.86,54.68 28.62,54.68 28.62,48.42 "/>
   <polygon class="fil3" points="29.77,49.56 29.08,50.25 28.74,50.59 28.4,50.25 27.71,49.56 28.05,49.22 28.74,49.91 29.43,49.22 "/>
   <polygon class="fil3" points="29.77,53.54 29.08,52.85 28.74,52.51 28.4,52.85 27.71,53.54 28.05,53.88 28.74,53.19 29.43,53.88 "/>
  </g>
  <g id="_1741613909936">
   <polygon class="fil2" points="129.57,12.39 129.57,5.88 72.87,5.88 72.87,12.39 72.63,12.39 72.63,5.96 0.38,44.16 0.38,50.72 0.14,50.72 0.14,41.4 0.38,41.4 0.38,43.89 72.63,5.69 72.63,3.06 72.87,3.06 72.87,5.64 129.57,5.64 129.57,3.06 129.81,3.06 129.81,12.39 "/>
   <polygon class="fil3" points="1.74,44.46 0.81,44.18 0.35,44.04 0.49,43.58 0.77,42.65 1.23,42.78 0.95,43.72 1.88,44 "/>
   <polygon class="fil3" points="71.33,5.33 72.27,5.61 72.73,5.75 72.59,6.21 72.31,7.14 71.85,7.01 72.13,6.07 71.2,5.79 "/>
   <polygon class="fil3" points="73.79,6.81 73.09,6.11 72.76,5.78 73.09,5.44 73.79,4.75 74.12,5.08 73.43,5.78 74.12,6.47 "/>
   <polygon class="fil3" points="128.67,6.81 129.37,6.11 129.7,5.78 129.37,5.44 128.67,4.75 128.34,5.08 129.03,5.78 128.34,6.47 "/>
  </g>
  <path class="fil0" d="M35.64 45.47l-0.42 0 0 1.21 -0.45 0 0 -1.21 -1.55 0 0 -0.49 1.57 -1.81 0.43 0 0 1.93 0.42 0 0 0.37zm-0.87 -0.37l0 -1.37 -1.18 1.37 1.18 0zm5.26 1.58l-0.44 0 0 -2.07 -0.63 1.35 -0.33 0 -0.63 -1.35 0 2.07 -0.41 0 0 -2.63 0.53 0 0.69 1.46 0.67 -1.46 0.55 0 0 2.63zm3.09 0l-0.45 0 0 -2.07 -0.63 1.35 -0.33 0 -0.63 -1.35 0 2.07 -0.41 0 0 -2.63 0.53 0 0.7 1.46 0.66 -1.46 0.56 0 0 2.63z"/>
  <path class="fil0" d="M21.9 21.33c0,0.18 -0.03,0.35 -0.09,0.5 -0.06,0.16 -0.14,0.28 -0.24,0.39 -0.11,0.1 -0.22,0.19 -0.35,0.24 -0.13,0.06 -0.28,0.09 -0.44,0.09 -0.15,0 -0.3,-0.03 -0.43,-0.08 -0.13,-0.06 -0.24,-0.14 -0.34,-0.24 -0.12,-0.13 -0.22,-0.3 -0.29,-0.51 -0.06,-0.22 -0.1,-0.48 -0.1,-0.79 0,-0.3 0.03,-0.58 0.1,-0.82 0.06,-0.25 0.16,-0.46 0.29,-0.65 0.12,-0.18 0.29,-0.31 0.49,-0.41 0.2,-0.1 0.43,-0.15 0.7,-0.15 0.08,0 0.15,0 0.22,0.01 0.06,0.01 0.12,0.02 0.18,0.04l0 0.45 -0.02 0c-0.05,-0.03 -0.11,-0.05 -0.19,-0.07 -0.08,-0.02 -0.16,-0.03 -0.25,-0.03 -0.3,0 -0.53,0.1 -0.71,0.3 -0.18,0.19 -0.29,0.49 -0.32,0.87 0.11,-0.07 0.23,-0.13 0.34,-0.18 0.12,-0.04 0.25,-0.06 0.39,-0.06 0.13,0 0.25,0.01 0.36,0.04 0.1,0.03 0.21,0.08 0.32,0.17 0.13,0.09 0.22,0.22 0.29,0.37 0.06,0.15 0.09,0.32 0.09,0.52zm-0.48 0.02c0,-0.14 -0.02,-0.26 -0.05,-0.36 -0.04,-0.1 -0.1,-0.18 -0.19,-0.25 -0.06,-0.05 -0.13,-0.08 -0.21,-0.1 -0.07,-0.01 -0.15,-0.02 -0.23,-0.02 -0.11,0 -0.22,0.02 -0.32,0.05 -0.11,0.03 -0.21,0.08 -0.31,0.14 0,0.04 -0.01,0.07 -0.01,0.1 0,0.03 0,0.07 0,0.12 0,0.25 0.02,0.44 0.07,0.59 0.05,0.15 0.11,0.26 0.18,0.34 0.07,0.07 0.14,0.12 0.21,0.15 0.07,0.03 0.15,0.05 0.23,0.05 0.19,0 0.34,-0.07 0.46,-0.21 0.11,-0.13 0.17,-0.33 0.17,-0.6zm3.4 1.12l-0.44 0 0 -2.06 -0.64 1.34 -0.33 0 -0.62 -1.34 0 2.06 -0.42 0 0 -2.63 0.54 0 0.69 1.46 0.67 -1.46 0.55 0 0 2.63zm1.49 -0.67l-0.66 1.55 -0.34 0 0.42 -1.55 0.58 0zm4.04 0.67l-1.71 0 0 -0.35 0.63 0 0 -2.36 -0.63 0 0 -0.32c0.24,0 0.42,-0.03 0.53,-0.1 0.11,-0.07 0.18,-0.2 0.19,-0.39l0.37 0 0 3.17 0.62 0 0 0.35zm2.81 0l-2.16 0 0 -0.49c0.15,-0.15 0.3,-0.29 0.44,-0.43 0.14,-0.13 0.27,-0.27 0.4,-0.42 0.27,-0.29 0.45,-0.53 0.55,-0.7 0.1,-0.18 0.15,-0.36 0.15,-0.55 0,-0.1 -0.02,-0.18 -0.05,-0.26 -0.03,-0.07 -0.07,-0.13 -0.13,-0.18 -0.05,-0.05 -0.12,-0.08 -0.19,-0.11 -0.07,-0.02 -0.15,-0.03 -0.24,-0.03 -0.08,0 -0.16,0.01 -0.25,0.03 -0.09,0.02 -0.17,0.05 -0.25,0.08 -0.06,0.03 -0.13,0.06 -0.19,0.1 -0.06,0.03 -0.11,0.07 -0.15,0.09l-0.02 0 0 -0.5c0.1,-0.05 0.23,-0.09 0.4,-0.14 0.18,-0.04 0.34,-0.07 0.5,-0.07 0.32,0 0.58,0.09 0.77,0.26 0.18,0.18 0.27,0.41 0.27,0.71 0,0.13 -0.01,0.26 -0.04,0.38 -0.04,0.11 -0.08,0.22 -0.14,0.32 -0.06,0.1 -0.12,0.2 -0.21,0.3 -0.08,0.1 -0.16,0.2 -0.26,0.3 -0.14,0.16 -0.31,0.33 -0.49,0.5 -0.18,0.17 -0.33,0.31 -0.43,0.41l1.72 0 0 0.4zm2.98 0l-0.44 0 0 -2.06 -0.63 1.34 -0.33 0 -0.63 -1.34 0 2.06 -0.42 0 0 -2.63 0.54 0 0.69 1.46 0.67 -1.46 0.55 0 0 2.63z"/>
  <path class="fil0" d="M100.03 3.58l-2.16 0 0 -0.49c0.15,-0.15 0.3,-0.29 0.44,-0.43 0.14,-0.13 0.27,-0.27 0.4,-0.42 0.27,-0.29 0.45,-0.53 0.55,-0.71 0.1,-0.17 0.15,-0.35 0.15,-0.54 0,-0.1 -0.02,-0.19 -0.05,-0.26 -0.03,-0.07 -0.07,-0.13 -0.13,-0.18 -0.05,-0.05 -0.11,-0.09 -0.19,-0.11 -0.07,-0.02 -0.15,-0.03 -0.24,-0.03 -0.08,0 -0.16,0.01 -0.25,0.03 -0.08,0.02 -0.17,0.05 -0.25,0.08 -0.06,0.02 -0.13,0.06 -0.19,0.09 -0.06,0.04 -0.11,0.07 -0.15,0.1l-0.02 0 0 -0.5c0.1,-0.05 0.23,-0.09 0.41,-0.14 0.17,-0.05 0.33,-0.07 0.49,-0.07 0.32,0 0.58,0.09 0.77,0.26 0.18,0.17 0.27,0.41 0.27,0.71 0,0.13 -0.01,0.26 -0.04,0.37 -0.04,0.12 -0.08,0.23 -0.14,0.33 -0.05,0.1 -0.12,0.2 -0.21,0.3 -0.08,0.1 -0.16,0.2 -0.26,0.3 -0.14,0.16 -0.31,0.32 -0.49,0.5 -0.18,0.17 -0.32,0.31 -0.43,0.41l1.72 0 0 0.4zm1.39 -0.67l-0.66 1.55 -0.34 0 0.41 -1.55 0.59 0zm2.53 0.67l-1.71 0 0 -0.36 0.63 0 0 -2.35 -0.63 0 0 -0.32c0.24,0 0.42,-0.03 0.53,-0.1 0.11,-0.07 0.18,-0.2 0.19,-0.39l0.37 0 0 3.16 0.62 0 0 0.36zm3.16 0l-0.45 0 0 -2.07 -0.63 1.35 -0.33 0 -0.63 -1.35 0 2.07 -0.41 0 0 -2.63 0.53 0 0.7 1.46 0.67 -1.46 0.55 0 0 2.63z"/>
  <path class="fil4 str0" d="M31.15 44l-1.69 0.97 1.69 0.97m-0.06 0.73l-1.68 -0.97"/>
 </g>
</svg>
